<?xml version="1.0" standalone="no"?>
<!DOCTYPE svg PUBLIC "-//W3C//DTD SVG 20010904//EN"
 "http://www.w3.org/TR/2001/REC-SVG-20010904/DTD/svg10.dtd">
<svg version="1.0" xmlns="http://www.w3.org/2000/svg"
 width="860.000000pt" height="651.000000pt" viewBox="0 0 860.000000 651.000000"
 preserveAspectRatio="xMidYMid meet">

<g transform="translate(0.000000,651.000000) scale(0.100000,-0.100000)"
fill="#ffffff" stroke="none">
<path d="M2920 5985 c0 -5 5 -17 10 -25 5 -8 10 -10 10 -5 0 6 -5 17 -10 25
-5 8 -10 11 -10 5z"/>
<path d="M2941 5940 c0 -3 22 -70 49 -150 28 -80 47 -129 44 -110 -11 61 -94
293 -93 260z"/>
<path d="M3041 5630 c0 -8 4 -24 9 -35 l9 -20 0 20 c0 11 -4 27 -9 35 -9 13
-10 13 -9 0z"/>
<path d="M3061 5554 c0 -11 3 -14 6 -6 3 7 2 16 -1 19 -3 4 -6 -2 -5 -13z"/>
<path d="M3081 5474 c0 -11 3 -14 6 -6 3 7 2 16 -1 19 -3 4 -6 -2 -5 -13z"/>
<path d="M3101 5415 c-1 -6 8 -52 19 -102 25 -114 87 -440 106 -558 43 -264
114 -733 123 -818 15 -131 51 -533 51 -560 0 -15 -45 -68 -133 -157 -301 -308
-533 -672 -714 -1125 -164 -408 -223 -658 -223 -940 0 -166 11 -252 46 -360
51 -160 116 -234 275 -314 l106 -54 139 -1 c183 -1 224 14 334 123 124 123
157 199 235 538 19 84 42 212 50 285 25 205 33 523 19 701 -7 83 -13 195 -13
247 -1 102 -23 497 -46 805 l-14 190 36 30 c100 83 408 250 578 314 266 100
496 120 780 70 150 -27 406 -137 623 -269 93 -57 190 -132 175 -137 -6 -2 -42
6 -80 19 -58 21 -80 23 -149 18 -82 -6 -138 -31 -129 -57 2 -7 -5 -18 -16 -24
-13 -6 -18 -16 -15 -26 5 -12 1 -14 -21 -9 -17 4 -23 3 -15 -2 7 -5 10 -16 6
-26 -6 -15 -2 -17 27 -15 19 2 43 -2 54 -8 11 -6 38 -16 60 -23 22 -7 49 -19
60 -26 11 -8 28 -14 38 -14 9 0 46 -10 80 -21 34 -12 69 -23 77 -24 30 -4 140
-56 140 -66 0 -4 10 -9 23 -13 12 -3 47 -22 77 -42 30 -20 73 -45 95 -56 22
-11 50 -30 63 -41 20 -18 24 -19 32 -7 7 11 12 12 21 3 14 -14 39 -6 39 12 0
7 8 12 18 11 10 0 18 7 18 19 1 11 2 26 3 33 1 10 8 9 31 -3 36 -18 73 -20 67
-2 -2 6 -8 11 -13 10 -5 -1 -9 11 -10 27 -1 15 -5 36 -9 46 -4 11 -9 25 -11
31 -1 7 -16 29 -33 50 -17 21 -31 41 -31 45 0 4 -16 32 -35 62 -19 30 -35 59
-35 63 0 4 -15 46 -34 93 -19 47 -51 131 -71 187 -21 57 -41 101 -45 98 -8 -5
-45 89 -85 215 -36 117 -46 140 -57 140 -32 0 -67 -204 -48 -278 7 -26 14 -55
17 -64 3 -14 1 -15 -21 -5 -19 9 -31 29 -47 80 -12 37 -23 66 -25 64 -6 -6 23
-109 45 -160 12 -27 21 -59 21 -72 0 -12 7 -28 15 -35 18 -15 18 -20 1 -43
-13 -17 -18 -16 -88 19 -40 20 -80 42 -88 49 -31 27 -228 124 -295 145 -38 12
-101 33 -140 46 -86 28 -223 61 -290 69 -27 4 -76 11 -108 16 -67 12 -233 10
-325 -2 -72 -10 -88 -13 -197 -35 -16 -3 -77 -21 -135 -41 -160 -53 -307 -131
-531 -284 -47 -33 -88 -59 -91 -59 -6 0 -7 5 -48 320 -44 333 -76 552 -99 670
-11 58 -34 191 -51 295 -39 238 -155 764 -159 720z m2674 -1864 c-6 -20 -25
-30 -25 -13 1 26 14 52 22 44 6 -6 7 -19 3 -31z m30 -68 c3 -21 13 -48 21 -60
8 -13 10 -23 4 -23 -5 0 -10 3 -10 8 0 4 -11 20 -25 36 -13 16 -21 34 -18 40
4 6 6 19 4 30 -1 10 2 15 7 12 5 -3 13 -23 17 -43z m-2391 -348 c67 -957 55
-1578 -38 -1976 -8 -35 -27 -118 -42 -183 -43 -192 -89 -291 -166 -362 -83
-76 -198 -115 -321 -109 -177 10 -295 89 -366 246 -63 138 -66 161 -66 434 0
362 23 463 198 911 82 207 184 412 285 569 89 139 303 405 436 543 71 73 70
74 80 -73z"/>
<path d="M5706 3740 c3 -19 10 -39 16 -45 11 -12 0 42 -14 65 -6 10 -7 3 -2
-20z"/>
<path d="M5260 3320 c0 -5 5 -10 11 -10 5 0 7 5 4 10 -3 6 -8 10 -11 10 -2 0
-4 -4 -4 -10z"/>
<path d="M5166 3301 c-7 -11 31 -22 50 -14 8 3 14 9 14 14 0 12 -57 12 -64 0z"/>
</g>
</svg>
